<svg xmlns="http://www.w3.org/2000/svg" viewBox="-6 -12 640 640" role="img" aria-label="TICLAT">
  <title>TICLAT</title>
  <defs>
    <linearGradient id="tl-hi" x1="0" y1="0" x2="1" y2="1"><stop offset="0" stop-color="#8ccdf4"/><stop offset="1" stop-color="#4eaae6"/></linearGradient>
    <linearGradient id="tl-light" x1="0" y1="0" x2="1" y2="1"><stop offset="0" stop-color="#7cc4f1"/><stop offset="1" stop-color="#4eaae6"/></linearGradient>
    <linearGradient id="tl-mid" x1="0" y1="0" x2="1" y2="1"><stop offset="0" stop-color="#4eaae6"/><stop offset="1" stop-color="#146bc1"/></linearGradient>
    <linearGradient id="tl-deep" x1="0" y1="0" x2="1" y2="1"><stop offset="0" stop-color="#146bc1"/><stop offset="1" stop-color="#2d4794"/></linearGradient>
    <linearGradient id="tl-red" x1="0" y1="0" x2="1" y2="1"><stop offset="0" stop-color="#c11a12"/><stop offset="1" stop-color="#9f0a09"/></linearGradient>
  </defs>
  <polygon points="306.5 0.5 405.5 98.5 306.5 197.5 208.5 98.5" fill="url(#tl-hi)"/>
  <polygon points="202.5 104.5 302.5 202.5 202.5 301.5 104.5 202.5" fill="url(#tl-mid)"/>
  <polygon points="98.5 208.5 198.5 306.5 98.5 405.5 0.5 306.5" fill="url(#tl-deep)"/>
  <polygon points="308.5 209.5 407.5 308.5 308.5 407.5 209.5 308.5" fill="url(#tl-light)"/>
  <polygon points="204.5 313.5 303.5 412.5 204.5 511.5 105.5 412.5" fill="url(#tl-deep)"/>
  <polygon points="308.5 417.5 407.5 516.5 308.5 615.5 209.5 516.5" fill="url(#tl-deep)"/>
  <polygon points="432.5 116.5 510.5 209.5 416.5 287.5 339.5 193.5" fill="url(#tl-red)"/>
  <polygon points="430.5 335.5 508.5 421.5 421.5 497.5 345.5 411.5" fill="url(#tl-red)"/>
  <polygon points="581.5 242.5 627.5 338.5 530.5 383.5 485.5 287.5" fill="url(#tl-red)"/>
</svg>
